# xmcd
#
# Track frame offsets: 
#        150
#        36815
#        115097
#        129915
#        166730
#        188427
#        220459
#        251500
#        285400
#
# Disc length: 3929 seconds
#
# Revision: 2
# Processed by: cddbd v1.5.2PL0 Copyright (c) Steve Scherf et al.
# Submitted via: ExactAudioCopy v0.99pb3
#
DISCID=710f5709
DTITLE=Wojciech Majewski Quintet - Zamyslenie
DYEAR=2003
DGENRE=Jazz
TTITLE0=Zamyslenie/Niekochana
TTITLE1=Pozegananie cz. I, II and III
TTITLE2=Po cos dal nam te glebokosc wejrzen
TTITLE3=Radosc
TTITLE4=Bema pamieci zalosny rapsod
TTITLE5=Tjoonk Blues
TTITLE6=Pamieci Strawinskiego
TTITLE7=Nie pomogly spacery/Rozmowa
TTITLE8=Boe, pelen w niebie chwaly
EXTD=YEAR: 2003
EXTT0=
EXTT1=
EXTT2=
EXTT3=
EXTT4=
EXTT5=
EXTT6=
EXTT7=
EXTT8=
PLAYORDER=
